<svg width="22" height="23" viewBox="0 0 22 23" fill="none" xmlns="http://www.w3.org/2000/svg">
<path d="M10.9999 9.49997V13.76H16.9199C16.6599 15.13 15.8798 16.29 14.7098 17.07L18.2798 19.84C20.3598 17.9201 21.5598 15.1001 21.5598 11.7501C21.5598 10.9701 21.4898 10.22 21.3598 9.50009L10.9999 9.49997Z" fill="#3CA464"/>
<path d="M4.83514 13.5937L4.02998 14.21L1.17993 16.43C2.98993 20.02 6.69965 22.5 10.9996 22.5C13.9695 22.5 16.4595 21.52 18.2796 19.84L14.7096 17.07C13.7296 17.73 12.4796 18.1301 10.9996 18.1301C8.13963 18.1301 5.7097 16.2001 4.83964 13.6L4.83514 13.5937Z" fill="#3CA464"/>
<path d="M1.17991 6.57001C0.429955 8.04995 0 9.71997 0 11.4999C0 13.2799 0.429955 14.9499 1.17991 16.4299C1.17991 16.4398 4.83998 13.5899 4.83998 13.5899C4.61998 12.9299 4.48994 12.2299 4.48994 11.4998C4.48994 10.7697 4.61998 10.0698 4.83998 9.40978L1.17991 6.57001Z" fill="#3CA464"/>
<path d="M10.9998 4.88C12.6199 4.88 14.0598 5.43998 15.2098 6.52L18.3598 3.37004C16.4498 1.59007 13.9699 0.5 10.9998 0.5C6.69988 0.5 2.98993 2.97 1.17993 6.57001L4.83988 9.41001C5.70983 6.80998 8.13986 4.88 10.9998 4.88Z" fill="#3CA464"/>
</svg>
