<svg width="32" height="32" viewBox="0 0 32 32" fill="none" xmlns="http://www.w3.org/2000/svg">
<path d="M26.6667 13.3334C26.6667 19.9907 19.2813 26.9241 16.8013 29.0654C16.5703 29.2391 16.2891 29.3331 16 29.3331C15.7109 29.3331 15.4297 29.2391 15.1987 29.0654C12.7187 26.9241 5.33333 19.9907 5.33333 13.3334C5.33333 10.5044 6.45713 7.79133 8.45752 5.79094C10.4579 3.79055 13.171 2.66675 16 2.66675C18.829 2.66675 21.5421 3.79055 23.5425 5.79094C25.5429 7.79133 26.6667 10.5044 26.6667 13.3334Z" stroke="#FEFFEF" stroke-width="2" stroke-linecap="round" stroke-linejoin="round"/>
<path d="M16 17.3334C18.2091 17.3334 20 15.5426 20 13.3334C20 11.1243 18.2091 9.33341 16 9.33341C13.7909 9.33341 12 11.1243 12 13.3334C12 15.5426 13.7909 17.3334 16 17.3334Z" stroke="#FEFFEF" stroke-width="2" stroke-linecap="round" stroke-linejoin="round"/>
</svg>
